<?xml version="1.0" encoding="UTF-8"?>
<svg width="245" height="400" version="1.1" xmlns="http://www.w3.org/2000/svg" xmlns:xlink="http://www.w3.org/1999/xlink">
 <path d="m101.91 78.909c-4.7296 1.8039-9.1886 4.1321-13.439 6.7872-10.31 6.4264-19.415 14.64-28.947 22.047-8.8335 6.8717-17.859 12.932-28.242 17.064 0.99778 1.6517 1.8941 3.3598 2.6889 5.1411 4.9889 11.28 4.8142 25.593 4.7973 37.651-0.02261 18.011 0.06768 36.022 0.09016 54.038 0.01119 8.9406 0.12966 18.078 0.94142 26.985 0.27622 3.0666 0.88503 9.5212 2.2943 12.289l0.12402 0.24804 0.09587 0.2706c4.0813 11.055 11.043 19.764 22.194 24.911 13.569 5.4117 27.374 11.263 40.21 18.118 5.795 3.0948 12.813 7.1254 18.231 11.714 5.4173-4.5887 12.441-8.6193 18.236-11.714 12.83-6.8548 26.641-12.706 40.205-18.118 11.15-5.1468 18.112-13.856 22.194-24.911l0.0959-0.2706 0.13529-0.24804c1.398-2.7679 2.0125-9.2224 2.2887-12.289 0.80612-8.9068 0.92451-18.045 0.93578-26.985 0.0282-18.016 0.11838-36.027 0.0959-54.038-0.0112-12.058-0.19731-26.371 4.7972-37.651 0.78921-1.7814 1.6855-3.4894 2.689-5.1411-10.389-4.132-19.415-10.192-28.248-17.064-9.5269-7.4073-18.637-15.621-28.936-22.047-4.2617-2.6551-8.7207-4.9833-13.45-6.7872-6.7985-1.2966-14.003-2.2718-20.942-2.1534h-0.1918c-6.9338-0.11838-14.144 0.85685-20.942 2.1534" fill="#ffd207"/>
 <path d="m104.28 87.051c-4.1941 1.6799-8.1514 3.8446-11.928 6.3137-9.1435 5.9867-17.222 13.631-25.677 20.525-7.8357 6.3869-15.846 12.03-25.063 15.88 0.89069 1.539 1.6855 3.1286 2.3902 4.7803 4.4308 10.502 4.2617 23.823 4.2504 35.052-0.01699 16.765 0.06768 33.519 0.08457 50.289 0.01119 8.3205 0.11839 16.827 0.83431 25.119 0.24802 2.8468 0.78921 8.856 2.035 11.438l0.11276 0.23113 0.08457 0.24803c3.6247 10.288 9.8031 18.4 19.696 23.186 12.035 5.0397 24.285 10.485 35.667 16.861 5.1468 2.8862 11.376 6.6293 16.184 10.902 4.7973-4.273 11.032-8.0161 16.173-10.902 11.387-6.3757 23.637-11.821 35.672-16.861 9.8989-4.786 16.072-12.898 19.691-23.186l0.0902-0.24803 0.11274-0.23113c1.2458-2.5818 1.787-8.5911 2.0294-11.438 0.72155-8.2923 0.82866-16.799 0.83994-25.119 0.0226-16.771 0.10146-33.524 0.0789-50.289-0.0112-11.229-0.17475-24.55 4.2561-35.052 0.69902-1.6517 1.4938-3.2414 2.3845-4.7803-9.2168-3.8502-17.222-9.493-25.057-15.88-8.4614-6.8943-16.534-14.538-25.683-20.525-3.7769-2.4691-7.7342-4.6338-11.923-6.3137-6.0318-1.2064-12.43-2.1196-18.586-2.0069h-0.1635c-6.1614-0.11273-12.554 0.80048-18.586 2.0069" fill="#345ca8"/>
 <g fill="#039c55">
  <path d="m105.01 296c0.5919 0.32695 1.1782 0.64827 1.7588 0.97523 5.1411 2.8806 11.376 6.6293 16.179 10.902v-71.581h-17.938z"/>
  <path d="m140.89 86.908c-5.8232-1.1387-11.951-1.973-17.853-1.8603h-0.0846v53.21h17.938z"/>
  <path d="m48.254 170.68c-0.0053 5.9811 0 11.962 0.01119 17.943h22.65v-17.943z"/>
  <path d="m197.58 206.57c0.0169-5.9811 0.0282-11.962 0.0395-17.938h-25.463v17.938z"/>
 </g>
 <path d="m123.27 331.87c-0.1071 0.15784-0.21421 0.32695-0.32131 0.48481-6.9958-10.84-20.48-20.322-40.43-28.451-19.403-5.1637-32.904-14.606-40.498-28.321-4.2392-6.5899-7.0972-14.003-8.5855-22.233-2.689-12.148-1.9843-16.917-2.1027-46.777h12.334l0.02261 13.326c0.02817 21.173 1.1387 34.026 3.3316 38.575 4.3068 12.227 11.697 20.858 22.171 25.886 29.156 12.199 47.076 22.239 53.756 30.114v17.881c0.10711-0.15786 0.21423-0.32697 0.32131-0.48481m0.33262-0.4848c-0.11274 0.14658-0.21422 0.30441-0.31569 0.45661 0.10147-0.1522 0.20295-0.31003 0.31569-0.45661m0.36076-0.52426c-0.1071 0.14657-0.20857 0.29877-0.31003 0.44533 0.10146-0.14656 0.20293-0.29876 0.31003-0.44533m0.35516-0.49044c-0.10712 0.15221-0.21421 0.29877-0.32133 0.44535zm0.76101-1.0203c-0.11273 0.15785-0.23112 0.31003-0.34386 0.46225 0.11274-0.15222 0.23113-0.3044 0.34386-0.46225m0.38334-0.47352c-0.12402 0.1522-0.24241 0.3044-0.37206 0.45661 0.12965-0.15221 0.24804-0.30441 0.37206-0.45661m1.2233-1.4769c-0.41152 0.47352-0.80049 0.94704-1.1838 1.4262 0.38332-0.47916 0.77229-0.95268 1.1838-1.4262m0.43405-0.49608c-0.13527 0.15221-0.27622 0.31004-0.40586 0.46224 0.12964-0.1522 0.27059-0.31003 0.40586-0.46224m0.4228-0.46788c-0.13529 0.14092-0.26494 0.28749-0.39461 0.43406 0.12967-0.14657 0.25932-0.29314 0.39461-0.43406m1.849-1.9279c-0.14094 0.1353-0.28185 0.27622-0.42279 0.41716 0.14094-0.14094 0.28185-0.28186 0.42279-0.41716m0.47917-0.47353c-0.14093 0.13529-0.2875 0.27623-0.42843 0.42279 0.14093-0.14656 0.2875-0.2875 0.42843-0.42279m0.99779-0.94141c-0.16349 0.14093-0.31569 0.28749-0.4679 0.43406 0.15221-0.14657 0.30441-0.29313 0.4679-0.43406m2.1421-1.8941c-0.35514 0.29313-0.70464 0.59754-1.0429 0.8963 0.33824-0.29876 0.68774-0.60317 1.0429-0.8963m0.52426-0.44534c-0.16911 0.14091-0.33823 0.27622-0.5017 0.42278 0.16347-0.14656 0.33259-0.28187 0.5017-0.42278m81.187-132.12c-0.60883 46.377 0.90195 50.459-2.2549 64.715-1.4882 8.2303-4.3463 15.643-8.5911 22.233-7.5933 13.715-21.089 23.158-40.492 28.321-8.7377 3.5627-16.241 7.3847-22.492 11.46v-14.037c9.0195-5.096 20.959-10.75 35.819-16.968 10.474-5.0284 17.864-13.659 22.171-25.886 2.1929-4.5492 3.3034-17.402 3.3316-38.575l0.0508-31.264h6.4884zm-91.774-121.05c6.3193-0.3495 12.982 0.20859 19.995 1.663 36.089 10.699 51.896 47.95 92.016 49.472-15.829 13.371-19.307 24.691-19.911 50.876l-0.0226 1.0936h-12.734v-1.0936c-0.11839-22.397 1.0598-31.236 9.0872-42.161-27.724-8.7997-42.713-34.77-68.436-44.861-7.6497-1.5502-14.313-2.2774-19.995-2.1759v-4.1603zm-92.095 102.01c-0.61445-26.185-4.0813-37.504-19.916-50.876 40.126-1.5221 55.932-38.773 92.016-49.472 0.68776-0.14091 1.3755-0.27622 2.0576-0.40023v13.332c-0.67647 0.12402-1.3642 0.2593-2.0576 0.3946-25.717 10.091-40.712 36.061-68.43 44.861 8.0274 10.925 9.2055 19.764 9.0872 42.161l0.02817 19.037h-12.458c-0.07327-5.6823-0.17476-11.996-0.32696-19.037" fill="#29285b"/>
 <g fill="#ffd207">
  <path d="m67.84 206.57v-17.938h-36.659c0.09017 6.8436 0.1353 12.768 0.15222 17.938h12.329z"/>
  <path d="m208.75 170.68h-32.234v17.943h38.198c0.0733-5.3835 0.16911-11.342 0.3044-17.943z"/>
  <path d="m105.01 135.95h17.938v-68.374c-5.6936-0.31005-11.675 0.1071-17.938 1.2684v13.332z"/>
  <path d="m140.89 308.06v-65.735h-17.938v90.032c3.9348-6.0938 9.9102-11.759 17.938-16.996z"/>
 </g>
 <path d="m85.973 131.47h73.949l-19.037 21.404v17.814h17.819l21.399-19.031v73.949l-21.399-19.037h-17.819v17.814l19.037 21.404h-73.949l19.031-21.404v-17.814h-17.814l-21.404 19.037v-73.949l21.404 19.031h17.814v-17.814z" fill="#fffefe"/>
 <path d="m145.91 202.82h-6.5842v-28.395h20.063l-1.0316 5.5414h-12.447v6.2235h11.844l-1.0316 5.5414h-10.812zm-27.724-23.372v6.184h5.5414c1.3022 0 2.221-0.24239 2.751-0.71592 0.53554-0.47915 0.79484-1.2458 0.79484-2.2831v-0.47353c0-0.95832-0.24241-1.646-0.73284-2.0745-0.49608-0.42843-1.3417-0.63701-2.5367-0.63701zm0 18.349h6.0205c1.4093 0 2.3958-0.23112 2.9708-0.69902 0.56935-0.46788 0.85685-1.3247 0.85685-2.5762v-0.51862c0-1.274-0.29877-2.1591-0.89632-2.6495-0.59754-0.49608-1.6292-0.73848-3.0948-0.73848h-5.8571zm-6.184-23.372h13.039c2.9821 0 5.158 0.58061 6.5222 1.7532 1.3698 1.1669 2.0576 2.937 2.0576 5.299v0.43971c0 2.9314-1.1725 4.8818-3.512 5.8683 1.3586 0.45098 2.4127 1.2064 3.1681 2.2718 0.75537 1.0654 1.1387 2.4691 1.1387 4.2279v0.71593c0 2.7397-0.82868 4.724-2.4916 5.9642-1.663 1.2402-4.0757 1.8546-7.2438 1.8546h-12.678zm-18.67 15.948c0 1.4375 0.08457 2.61 0.25366 3.512 0.16913 0.90758 0.50172 1.6178 0.98088 2.1365 0.47916 0.51862 1.1274 0.86813 1.9505 1.0598 0.82303 0.18038 1.8772 0.27622 3.1512 0.27622h2.8919c0.56935 0 1.2345-0.0112 1.973-0.0226 0.74412-0.0112 1.6122-0.0338 2.5988-0.0564l-1.0767 5.5414c-1.6517 0.0508-2.9708 0.0789-3.9517 0.0789h-2.7904c-2.3733 0-4.3688-0.21421-6.0036-0.65955-1.6348-0.4397-2.9595-1.1443-3.9742-2.1309-1.0034-0.98651-1.7306-2.2831-2.1703-3.8897s-0.65955-3.5909-0.65955-5.9642v-3.309c0-2.3394 0.23677-4.3124 0.70464-5.9021 0.46225-1.5953 1.2007-2.8919 2.2098-3.884 1.0147-1.0034 2.3338-1.725 3.9686-2.1591 1.6348-0.43971 3.6078-0.65956 5.9247-0.65956h2.9313c0.59754 0 1.274 5e-3 2.035 0.017 0.75538 0.0226 1.6292 0.0395 2.61 0.0677l-1.0823 5.5414c-0.97524-0.0226-2.0068-0.0451-3.0836-0.0563-1.0767-0.0226-2.1252-0.0282-3.1343-0.0282-1.3022 0-2.3563 0.10146-3.1737 0.28187-0.80612 0.18603-1.4431 0.53552-1.911 1.0372-0.4679 0.50734-0.77794 1.212-0.94142 2.1196-0.15221 0.89631-0.23113 2.0801-0.23113 3.5458z" fill="#2a275c"/>
 <path d="m234.14 380.6-1.4846 9.3945h-28.769v-43.044h11.445v33.645zm-211.43 9.3945h-10.961v-43.044h30.501l-1.4824 9.3806h-18.058v7.9676h16.799l-1.4609 9.2448h-15.338zm75.75 0v-33.482h-13.596l1.511-9.5614h37.105l-1.511 9.5614h-12.085v33.482zm74.016-43.044-15.343 43.044h11.326l3.5658-10.003 14.258 5.1e-4 3.5658 10.003h11.326l-15.343-43.044-6.677-2.5e-4zm6.677 10.105 4.5091 14.071-9.0181-5.1e-4zm-23.048-10.326c-5.58 0.15197-16.74 0.47425-16.74 0.47425-2.3312 0.0686-4.6854 0.1414-6.9436 0.72452s-4.4445 1.7288-5.8561 3.5854c-0.96302 1.2666-1.5221 2.8049-1.8083 4.3701-0.28616 1.5652-0.3114 3.1657-0.29236 4.7567 0.0265 2.219 0.16722 4.5408 1.3038 6.4467 0.64612 1.0834 1.5874 1.9732 2.6467 2.6582 1.0593 0.68496 2.236 1.1724 3.4389 1.5521 3.1216 0.98542 6.418 1.2586 9.6191 1.9426 0.83916 0.17932 1.6911 0.39502 2.4069 0.86813 0.87272 0.57679 1.4927 1.548 1.5729 2.591 0.0401 0.52152-0.0517 1.0539-0.27493 1.5272-0.22267 0.47327-0.57625 0.88569-1.0156 1.1695-0.43045 0.27817-0.93301 0.42944-1.44 0.50533-0.50688 0.0759-1.0215 0.0795-1.5341 0.0826l-15.274-3e-3 -1.416 8.9604c4.4461 0.73958 8.9579 1.0838 13.465 1.0274 3.8921-0.0488 7.8237-0.40504 11.51-1.6562 2.317-0.78647 4.6078-2.0025 5.979-4.0289 0.7889-1.1658 1.2288-2.54 1.4507-3.93 0.22193-1.39 0.23481-2.8041 0.23027-4.2118 0-1.6217-0.0338-3.2544-0.35465-4.844s-0.95212-3.1486-2.0357-4.3552c-1.1228-1.2503-2.6694-2.0554-4.2703-2.5664-1.6009-0.51096-3.2731-0.75078-4.929-1.0373-2.1096-0.365-4.2048-0.80857-6.302-1.2392-0.51202-0.10516-1.0266-0.21015-1.5165-0.39227-0.48994-0.1821-0.95835-0.44614-1.3142-0.82902-0.56565-0.60864-0.79952-1.498-0.64564-2.3145 0.15388-0.81654 0.68005-1.5474 1.3847-1.9877 0.50237-0.31393 1.0837-0.4844 1.6699-0.56964 0.58622-0.0852 1.1809-0.0886 1.7733-0.0899l14.009 0.32016 1.5024-9.5073zm-87.681 32.733c0.88182-0.69555 1.4113-1.761 1.6663-2.8548 0.25503-1.0938 0.26109-2.2282 0.26536-3.3513v-26.306h11.517v22.423c0 3.2958-0.02018 6.6287-0.80652 9.8293-0.78639 3.2006-2.4331 6.3054-5.1222 8.2107-1.7609 1.2476-3.8765 1.92-6.01 2.2448-2.9717 0.45239-9.9249 0.45658-12.92 0-2.1335-0.32477-4.2491-0.99714-6.01-2.2448-2.6892-1.9054-4.3359-5.0102-5.1222-8.2107-0.7864-3.2006-0.80652-6.5335-0.80652-9.8293v-22.423h11.517v26.306c0 1.1231 0.01054 2.2575 0.26536 3.3513 0.25503 1.0938 0.78447 2.1592 1.6663 2.8548 0.67634 0.53349 1.5204 0.81964 2.3713 0.95386 1.1459 0.18074 4.0059 0.18113 5.1568 0 0.8509-0.13422 1.695-0.42037 2.3713-0.95386z" fill="#039c55"/>
 <g id="b">
  <path id="a" d="m28.574 56.711 4.3519 13.49 14.178-0.03379-11.483 8.3092 4.4027 13.473-11.449-8.3487-11.449 8.3487 4.4026-13.473-11.483-8.3092 14.178 0.03379z" fill="#039c55"/>
  <use transform="translate(38.251,-27.763)" xlink:href="#a"/>
  <use transform="translate(74.156 -46.711)" xlink:href="#a"/>
 </g>
 <use transform="matrix(-1 0 0 1 245 5e-6)" xlink:href="#b"/>
</svg>
